<svg xmlns="http://www.w3.org/2000/svg" enable-background="new 0 0 51 51" viewBox="0 0 51 51"><path fill="#70C493" d="M43.23364,4.65667v16.88471c0,0.80485-0.64738,1.45223-1.45229,1.45223H10.32167
				c-0.8049,0-1.45229-0.64738-1.45229-1.45223V4.65667c0-0.80485,0.64738-1.45223,1.45229-1.45223h31.45969
				C42.58626,3.20443,43.23364,3.85182,43.23364,4.65667z"/><rect width="34.364" height="3.884" x="8.869" y="6.713" fill="#3F5176"/><path fill="#010101" d="M43.23234,4.65411v16.88465c0,0.80485-0.64738,1.45223-1.45229,1.45223H10.32038
				c-0.5424,0-1.0061-0.28866-1.25109-0.72609C37.11713,19.72781,42.0425,8.78339,42.7774,3.60428
				C43.05736,3.85797,43.23234,4.2342,43.23234,4.65411z" opacity=".1"/><path fill="#F9A67B" d="M47.3921,15.18426v25.39001c0,1.32996-1.08002,2.39996-2.39996,2.39996h-37.88
			c-1.32001,0-2.40002-1.07001-2.40002-2.39996V15.18426c0-1.33002,1.08002-2.41003,2.40002-2.41003h37.88
			c0.94995,0,1.76996,0.56,2.15997,1.36005C47.30213,14.44427,47.3921,14.80426,47.3921,15.18426z"/><path fill="#010101" d="M47.3921,15.18426v25.39001c0,1.32996-1.08002,2.39996-2.39996,2.39996H8.91212
			c18.64996-8.01996,31.87-21.38,38.23999-28.83997C47.30213,14.44427,47.3921,14.80426,47.3921,15.18426z" opacity=".1"/><path fill="#3F5176" d="M48.37864,31.93755h-6.99669c-0.39153,0-0.75471-0.20418-0.95818-0.53868l-1.78738-2.93845
			c-0.21778-0.35804-0.21778-0.80763,0-1.16566l1.78738-2.93845c0.20347-0.3345,0.56665-0.53868,0.95818-0.53868h6.99669
			c0.61939,0,1.12151,0.50212,1.12151,1.12151v5.87691C49.50015,31.43543,48.99803,31.93755,48.37864,31.93755z"/><g><path fill="#FFF" d="M44.17277,27.87339c0,0.89234-0.72795,1.62029-1.62029,1.62029
			c-0.89234,0-1.60853-0.72795-1.60853-1.62029s0.71619-1.60853,1.60853-1.60853
			C43.44482,26.26486,44.17277,26.98105,44.17277,27.87339z"/></g><g><circle cx="13.5" cy="35.798" r="12" fill="#F5C560"/><path fill="#010101" d="M25.50017,35.79811c0,6.62395-5.37597,11.99986-11.99986,11.99986
						c-3.72476,0-7.05596-1.69914-9.26392-4.36794c2.064,1.68959,4.72313,2.70718,7.6031,2.70718
						c6.62395,0,11.99986-5.37592,11.99986-11.99987c0-2.87996-1.01759-5.53915-2.70718-7.6031
						C23.80097,28.74222,25.50017,32.07341,25.50017,35.79811z" opacity=".1"/><path fill="#2A3D66" d="M48.38965,22.81872v-7.6383c0-1.87549-1.52539-3.40137-3.40137-3.40137h-0.75586v-7.125
					c0-1.40316-1.14811-2.45215-2.45215-2.45215H10.32031c-1.35254,0-2.45215,1.1001-2.45215,2.45215v7.125H7.11426
					c-1.87598,0-3.40234,1.52588-3.40234,3.40137v12.09003C1.71808,29.55572,0.5,32.53429,0.5,35.79809c0,7.16846,5.83203,13,13,13
					c4.07062,0,7.70673-1.88361,10.09222-4.82178h21.39606c1.87598,0,3.40137-1.52588,3.40137-3.40186v-7.63782
					C49.55457,32.93066,50.5,31.98241,50.5,30.81615V24.9392C50.5,23.77294,49.55457,22.8247,48.38965,22.81872z M9.86816,4.65404
					c0-0.25342,0.19824-0.45215,0.45215-0.45215h31.45996c0.20446,0,0.45215,0.16674,0.45215,0.45215v7.125H9.86816V4.65404z
					 M13.5,46.79809c-6.06543,0-11-4.93457-11-11c0-6.06494,4.93457-10.99951,11-10.99951s11,4.93457,11,10.99951
					C24.5,41.86352,19.56543,46.79809,13.5,46.79809z M44.98828,41.97631H24.93506C25.93256,40.1375,26.5,38.03295,26.5,35.79809
					c0-7.16797-5.83203-12.99951-13-12.99951c-2.92285,0-5.61432,0.98138-7.78809,2.61584V15.18041
					c0-0.77295,0.62891-1.40137,1.40234-1.40137h37.87402c0.77246,0,1.40137,0.62842,1.40137,1.40137v7.63721h-5.00781
					c-0.73633,0-1.43066,0.39063-1.8125,1.01904l-1.78711,2.93799c-0.41406,0.68018-0.41406,1.52539,0,2.20508l1.78711,2.93799
					c0.38184,0.6294,1.07617,1.02002,1.8125,1.02002h5.00781v7.63672C46.38965,41.3474,45.76074,41.97631,44.98828,41.97631z
					 M48.5,30.81615c0,0.06689-0.05469,0.12158-0.12109,0.12158h-6.99707c-0.04199,0-0.08105-0.02246-0.10352-0.05859
					l-1.78711-2.93896c-0.02344-0.03857-0.02344-0.08691,0-0.12598l1.78711-2.93896
					c0.02148-0.03564,0.06152-0.05762,0.10352-0.05762h6.99707c0.06641,0,0.12109,0.05469,0.12109,0.12158V30.81615z"/><g><path fill="#F4BA42" d="M13.50007,43.95792c-4.49964,0-8.15991-3.66072-8.15991-8.15991s3.66027-8.15991,8.15991-8.15991
						s8.15991,3.66072,8.15991,8.15991S17.99971,43.95792,13.50007,43.95792z"/></g><g><path fill="#FFF" d="M15.81055,35.57543c0.49609,0.20703,0.91406,0.51416,1.25586,0.92236
					c0.34082,0.40869,0.51172,0.95361,0.51172,1.63574c0,0.55811-0.15039,1.05664-0.4502,1.49609s-0.72363,0.79346-1.27148,1.06201
					c-0.54785,0.26904-1.18848,0.42383-1.92188,0.46533v1.20898c0,0.10352-0.03418,0.18604-0.10059,0.24805
					c-0.06738,0.06201-0.15332,0.09326-0.25586,0.09326c-0.10352,0-0.18652-0.03125-0.24805-0.09326
					c-0.0625-0.06201-0.09375-0.14453-0.09375-0.24805v-1.20898c-1.18848-0.05225-2.29395-0.2998-3.31738-0.74463
					C9.79492,40.36108,9.69141,40.281,9.6084,40.17211c-0.08203-0.1084-0.12402-0.22998-0.12402-0.36426
					c0-0.17578,0.05957-0.32568,0.17871-0.44971s0.27148-0.18604,0.45703-0.18604c0.10352,0,0.20215,0.021,0.29492,0.06201
					c0.83691,0.37207,1.77734,0.57373,2.82129,0.60498v-3.55078c-0.75391-0.1958-1.37988-0.40039-1.87598-0.6123
					c-0.49609-0.21143-0.91406-0.5166-1.25586-0.91455c-0.34082-0.39795-0.51074-0.91699-0.51074-1.55811
					c0-0.55811,0.13867-1.06982,0.41797-1.53516c0.2793-0.46484,0.69238-0.84229,1.24023-1.13135
					c0.54785-0.28955,1.20996-0.45508,1.98438-0.49658v-1.20898c0-0.10352,0.03125-0.18848,0.09375-0.25586
					c0.06152-0.06738,0.14453-0.10059,0.24805-0.10059c0.10254,0,0.18848,0.0332,0.25586,0.10059
					c0.06641,0.06738,0.10059,0.15234,0.10059,0.25586v1.19385c0.99219,0.03076,1.91211,0.20117,2.75977,0.51172
					c0.28906,0.10303,0.43359,0.31006,0.43359,0.62012c0,0.16504-0.05664,0.3125-0.16992,0.44189
					c-0.11426,0.12891-0.26367,0.19336-0.4502,0.19336c-0.06152,0-0.14453-0.02051-0.24805-0.06201
					c-0.75488-0.26855-1.5293-0.4082-2.3252-0.41846v3.68994C14.68848,35.17748,15.31445,35.36889,15.81055,35.57543z
					 M11.5625,34.17992c0.38184,0.24805,0.94043,0.46533,1.67383,0.65137v-3.48828
					c-0.67188,0.06201-1.21387,0.24561-1.62793,0.55029c-0.41309,0.30469-0.62012,0.70557-0.62012,1.20166
					C10.98828,33.57006,11.17969,33.93188,11.5625,34.17992z M16.18262,38.04028c0-0.40283-0.18848-0.71826-0.56641-0.94531
					c-0.37695-0.22754-0.9375-0.43945-1.68164-0.63574v3.36426C15.43262,39.72045,16.18262,39.12572,16.18262,38.04028z"/></g></g></svg>
