<?xml version="1.0" encoding="utf-8"?>
<!-- Generator: Adobe Illustrator 21.0.0, SVG Export Plug-In . SVG Version: 6.00 Build 0)  -->
<svg version="1.1" id="Layer_1" xmlns="http://www.w3.org/2000/svg" xmlns:xlink="http://www.w3.org/1999/xlink" x="0px" y="0px"
	 viewBox="0 0 38 32" style="enable-background:new 0 0 38 32;" xml:space="preserve">
<style type="text/css">
	.st0{fill:#30DB5B;}
</style>
<g>
	<path class="st0" d="M32.5,7.5C32.8,7.5,33,7.3,33,7V5.3c0-0.9-0.7-1.6-1.6-1.6h-2.7l-0.6-1.8c-0.1-0.3-0.4-0.4-0.6-0.3L12.9,6
		c-0.3,0.1-0.4,0.4-0.3,0.6C12.7,6.9,12.9,7,13.2,7l14.1-4.3l1.3,4C28.7,6.9,29,7,29.3,6.9s0.4-0.4,0.3-0.6L29,4.7h2.3
		C31.7,4.7,32,5,32,5.3V7C32,7.3,32.2,7.5,32.5,7.5z"/>
	<path class="st0" d="M36.5,15c-0.3,0-0.5,0.2-0.5,0.5s0.2,0.5,0.5,0.5c0.4,0,0.5,0.1,0.5,0.5v6c0,0.4-0.1,0.5-0.5,0.5h-8
		c-0.4,0-0.5-0.1-0.5-0.5v-5c0-0.4,0.1-0.5,0.5-0.5h6c0.3,0,0.5-0.2,0.5-0.5v-6C35,9.6,34.4,9,33.5,9H3C1.8,9,1,8.2,1,7s0.8-2,2-2
		h5.1l-3,1C4.8,6.1,4.6,6.4,4.7,6.6C4.8,6.9,5.1,7,5.3,7c0,0,0,0,0,0l18.1-6c0.3-0.1,0.4-0.4,0.3-0.6S23.4-0.1,23.2,0L11.1,4
		c0,0,0,0-0.1,0H3C1.2,4,0,5.2,0,7v22c0,1.8,1.2,3,3,3h30.5c0.9,0,1.5-0.6,1.5-1.5v-5c0-0.3-0.2-0.5-0.5-0.5S34,25.2,34,25.5v5
		c0,0.4-0.1,0.5-0.5,0.5H3c-1.2,0-2-0.8-2-2V9.3C1.5,9.7,2.2,10,3,10h30.5c0.4,0,0.5,0.1,0.5,0.5V16h-5.5c-0.9,0-1.5,0.6-1.5,1.5v5
		c0,0.9,0.6,1.5,1.5,1.5h8c0.9,0,1.5-0.6,1.5-1.5v-6C38,15.6,37.4,15,36.5,15z"/>
	<circle class="st0" cx="32" cy="20" r="1"/>
</g>
</svg>
